<svg width="239" height="82" viewBox="0 0 239 82" fill="none" xmlns="http://www.w3.org/2000/svg">
<path fill-rule="evenodd" clip-rule="evenodd" d="M144 82L167 6.5H189L181.5 31.5L209 6.5H229.5L191.5 40.5L211.5 82H189.5L176.5 50L166 82H144ZM21 28.5002H0.5V82.0002H25C33.0084 82.0002 36.3631 76.183 54.5861 44.5826L54.5863 44.5823L54.5867 44.5815L54.5876 44.58C60.2569 34.749 67.3651 22.4228 76.5 7.0002H53.5L21 64.5002V28.5002ZM88 7.0002L65.5 82.0002H88L94.5 60.5002H122C136.4 60.5002 147.5 38.0002 147.5 26.5002C147.5 9.99979 135.5 7.00062 126 7.0002H88ZM99 45.0002L106.5 20.5002H121C122.833 20.6669 126.5 22.5002 126.5 28.5002C126.5 36.0002 119.5 45.0002 114.5 45.0002H99Z" fill="black"/>
<path fill-rule="evenodd" clip-rule="evenodd" d="M153 76L176 0.5H198L190.5 25.5L218 0.5H238.5L200.5 34.5L220.5 76H198.5L185.5 44L175 76H153ZM30 22.5002H9.5V76.0002H34C42.0084 76.0002 45.3631 70.183 63.5861 38.5826L63.5863 38.5823L63.5867 38.5815L63.5876 38.58C69.2569 28.749 76.3651 16.4228 85.5 1.0002H62.5L30 58.5002V22.5002ZM97 1.0002L74.5 76.0002H97L103.5 54.5002H131C145.4 54.5002 156.5 32.0002 156.5 20.5002C156.5 3.99979 144.5 1.00062 135 1.0002H97ZM108 39.0002L115.5 14.5002H130C131.833 14.6669 135.5 16.5002 135.5 22.5002C135.5 30.0002 128.5 39.0002 123.5 39.0002H108Z" fill="white"/>
</svg>
